<svg width="813" height="580" viewBox="0 0 813 580" fill="none" xmlns="http://www.w3.org/2000/svg">
<path d="M150.907 494.284L126.296 200.071C125.671 192.58 127.808 185.116 132.321 179.02L255.124 13.2719C261.798 4.26042 272.846 -0.660557 284.201 0.316859L704.606 36.4643C718.244 37.6395 729.645 47.0464 733.086 59.9675L790.847 276.767C792.266 282.101 792.231 287.7 790.742 293.011L734.222 495.019L150.907 494.284Z" fill="url(#paint0_linear_65_1001)"/>
<path d="M682.666 251.817H429.326C425.74 251.817 422.832 248.981 422.832 245.484V91.3234C422.832 87.8262 425.74 84.99 429.326 84.99H682.666C686.252 84.99 689.161 87.8262 689.161 91.3234V245.484C689.161 248.981 686.252 251.817 682.666 251.817Z" fill="white"/>
<path d="M679.225 251.817H425.891C422.305 251.817 419.396 248.981 419.396 245.484V91.3234C419.396 87.8262 422.305 84.99 425.891 84.99H679.231C682.817 84.99 685.725 87.8262 685.725 91.3234V245.484C685.725 248.981 682.817 251.817 679.225 251.817Z" fill="#485BFF"/>
<path opacity="0.6" d="M679.225 251.817H425.891C422.305 251.817 419.396 248.981 419.396 245.484V91.3234C419.396 87.8262 422.305 84.99 425.891 84.99H679.231C682.817 84.99 685.725 87.8262 685.725 91.4251V245.58C685.725 248.981 682.817 251.817 679.225 251.817Z" fill="white"/>
<path opacity="0.2" d="M419.391 212.902H509.565V137.093H419.391V212.902Z" fill="#485BFF"/>
<path opacity="0.2" d="M445.032 161.392V175.771H451.301V199.878H458.363V172.098L479.926 179.539V185.55H486.142V163.866H493.152V159.013H506.773V163.866H508.702V212.901H419.396V161.392H445.032Z" fill="#485BFF"/>
<path d="M512.67 215.63H419.396V211.348H508.702V211.342V157.183V138.183H419.396V133.9H512.67V215.63Z" fill="#485BFF"/>
<path d="M508.708 157.184H508.702V211.343H508.708V157.184Z" fill="#D6D9DB"/>
<path opacity="0.2" d="M467.319 138.183L508.702 178.737V211.342H506.147L426.012 138.183H467.319Z" fill="white"/>
<path opacity="0.2" d="M419.396 150.917L488.268 211.342H472.174L419.396 166.058V150.917Z" fill="white"/>
<path d="M449.221 215.63H453.195V133.906H449.221V215.63Z" fill="#485BFF"/>
<path opacity="0.8" d="M449.221 211.348H453.195V138.183H449.221V211.348Z" fill="white"/>
<path opacity="0.4" d="M512.67 215.63H513.806V133.906H512.67V215.63Z" fill="#485BFF"/>
<path d="M508.835 141.234V139.771H419.396V141.234H508.835Z" fill="#485BFF"/>
<path d="M508.829 143.86V142.397H419.391V143.86H508.829Z" fill="#485BFF"/>
<path d="M508.835 146.488V145.024H419.396V146.488H508.835Z" fill="#485BFF"/>
<path d="M508.835 149.11V147.646H419.396V149.11H508.835Z" fill="#485BFF"/>
<path opacity="0.8" d="M512.67 215.63H419.396V211.348H508.702V211.342V157.183V138.183H419.396V133.9H512.67V215.63Z" fill="white"/>
<path opacity="0.7" d="M508.708 141.239V139.776H419.391V141.239H508.708Z" fill="white"/>
<path opacity="0.7" d="M508.702 143.867V142.404H419.391V143.867H508.702Z" fill="white"/>
<path opacity="0.7" d="M508.702 146.488V145.024H419.391V146.488H508.702Z" fill="white"/>
<path opacity="0.7" d="M508.702 149.115V147.652H419.391V149.115H508.702Z" fill="white"/>
<path opacity="0.2" d="M507.665 149.11H508.696V147.646H507.665V149.11Z" fill="#485BFF"/>
<path opacity="0.2" d="M507.665 146.488H508.696V145.024H507.665V146.488Z" fill="#485BFF"/>
<path opacity="0.2" d="M507.665 143.867H508.696V142.404H507.665V143.867Z" fill="#485BFF"/>
<path opacity="0.2" d="M507.665 141.234H508.696V139.771H507.665V141.234Z" fill="#485BFF"/>
<path opacity="0.2" d="M448.213 149.11H449.244V147.646H448.213V149.11Z" fill="#485BFF"/>
<path opacity="0.2" d="M448.213 146.488H449.244V145.024H448.213V146.488Z" fill="#485BFF"/>
<path opacity="0.2" d="M448.213 143.867H449.244V142.404H448.213V143.867Z" fill="#485BFF"/>
<path opacity="0.2" d="M448.213 141.234H449.244V139.771H448.213V141.234Z" fill="#485BFF"/>
<path opacity="0.2" d="M453.195 149.11H454.226V147.646H453.195V149.11Z" fill="#485BFF"/>
<path opacity="0.2" d="M453.195 146.488H454.226V145.024H453.195V146.488Z" fill="#485BFF"/>
<path opacity="0.2" d="M453.195 143.867H454.226V142.404H453.195V143.867Z" fill="#485BFF"/>
<path opacity="0.2" d="M453.195 141.234H454.226V139.771H453.195V141.234Z" fill="#485BFF"/>
<path d="M625.439 235.472H548.091L564.95 184.302C566.039 180.991 569.202 178.742 572.771 178.742H632.866C638.434 178.742 642.391 184.031 640.687 189.2L625.439 235.472Z" fill="#485BFF"/>
<path d="M619.315 235.472H541.968L558.745 184.539C559.881 181.087 563.177 178.742 566.897 178.742H626.262C632.067 178.742 636.186 184.257 634.413 189.641L619.315 235.472Z" fill="#485BFF"/>
<path opacity="0.2" d="M619.315 235.472H541.968L558.745 184.539C559.881 181.087 563.177 178.742 566.897 178.742H626.262C632.067 178.742 636.186 184.257 634.413 189.641L619.315 235.472Z" fill="white"/>
<path d="M495.359 181.579L487.44 173.884C487.11 173.562 486.588 173.534 486.223 173.805L486.2 173.822C485.279 174.506 485.036 175.765 485.644 176.726L487.417 179.556L495.359 181.579Z" fill="#906363"/>
<path opacity="0.15" d="M495.359 181.579L487.44 173.884C487.11 173.562 486.588 173.534 486.223 173.805L486.2 173.822C485.279 174.506 485.036 175.765 485.644 176.726L487.417 179.556L495.359 181.579Z" fill="black"/>
<path fill="#906363">
    <animate attributeName="d" dur="10000s" repeatCount="inndefinite" values="M474.932 171.494C475.442 171.398 475.946 171.698 476.096 172.183L477.852 177.85C477.979 178.251 478.344 178.539 478.773 178.579L491.2 179.596C493.813 179.811 496.008 181.613 496.663 184.088L498.1 189.359L488.124 193.065L487.069 189.675C486.901 189.139 486.449 188.732 485.893 188.619L477.354 186.822C476.351 186.613 475.465 186.048 474.862 185.24L466.52 174.268C466.201 173.839 466.3 173.24 466.74 172.929C467.14 172.647 467.69 172.698 468.026 173.048L471.705 176.918L469.683 170.681C469.521 170.15 469.834 169.59 470.373 169.432C470.871 169.285 471.404 169.528 471.612 169.991L475.465 178.703L474.127 172.681C474.005 172.133 474.37 171.602 474.932 171.494Z"></animate>
</path>
<g opacity="0.15">
<path opacity="0.15" d="M471.96 179.042C471.827 179.042 471.705 178.958 471.665 178.828L470.975 176.568C470.929 176.409 471.021 176.246 471.184 176.195C471.346 176.15 471.514 176.24 471.566 176.398L472.255 178.658C472.302 178.816 472.209 178.98 472.047 179.031C472.018 179.037 471.989 179.042 471.96 179.042Z" fill="black"/>
</g>
<path d="M580.847 142.376C580.847 142.376 589.856 146.929 586.577 158.941C585.349 163.444 589.827 164.478 592.121 166.681C598.071 172.393 593.743 183.308 590.29 183.139L545.635 200.71C545.635 200.71 531.592 176.902 538.323 166.8C541.313 162.308 540.751 161.636 539.575 156.901C537.773 149.641 543.039 146.839 543.039 146.839L545.693 146.585L557.401 126.957L574.196 140.839L576.908 141.229L580.847 142.376Z" fill="black"/>
<path d="M549.858 172.229L543.039 189.201C547.158 195.229 566.792 192.72 572.03 185.189L578.339 170.878L576.884 170.489C575.453 170.121 574.445 168.878 574.411 167.432L573.026 151.545L555.785 149.285L555.211 162.274L554.922 168.737C554.771 170.059 553.803 171.166 552.483 171.517L549.858 172.229Z" fill="#906363"/>
<path d="M560.02 166.234L560.924 166.262C567.441 166.46 572.887 161.465 573.09 155.109L573.6 138.962C573.669 136.843 571.96 135.069 569.787 135.007L554.337 134.538C551.509 134.453 549.151 136.617 549.065 139.374L548.589 154.375C548.381 160.725 553.502 166.042 560.02 166.234Z" fill="#906363"/> 
<path d="M561.016 150.11C561.723 150.11 562.297 149.55 562.297 148.861C562.297 148.172 561.723 147.612 561.016 147.612C560.31 147.612 559.736 148.172 559.736 148.861C559.736 149.55 560.31 150.11 561.016 150.11Z" fill="#21252B"/>
<path d="M560.28 149.37C560.437 149.37 560.558 149.251 560.558 149.098C560.558 148.951 560.431 148.827 560.28 148.827C560.13 148.827 560.002 148.946 560.002 149.098C560.002 149.251 560.13 149.37 560.28 149.37Z" fill="white"/>
<path d="M551.15 149.963C551.857 149.963 552.431 149.403 552.431 148.714C552.431 148.025 551.857 147.466 551.15 147.466C550.443 147.466 549.87 148.025 549.87 148.714C549.87 149.403 550.443 149.963 551.15 149.963Z" fill="#21252B"/>
<path d="M550.496 149.273C550.647 149.273 550.773 149.155 550.773 149.002C550.773 148.85 550.647 148.731 550.496 148.731C550.34 148.731 550.217 148.85 550.217 149.002C550.217 149.149 550.34 149.273 550.496 149.273Z" fill="white"/>
<g opacity="0.3">
<path opacity="0.3" d="M555.825 155.912L557.552 156.019C557.755 156.031 557.934 155.878 557.946 155.68C557.957 155.483 557.801 155.307 557.598 155.296L555.872 155.189C555.443 155.161 555.119 154.799 555.147 154.381C555.176 153.951 555.547 153.635 555.976 153.663C556.179 153.675 556.358 153.522 556.37 153.324C556.381 153.127 556.225 152.951 556.022 152.94C555.182 152.889 554.458 153.511 554.406 154.324C554.354 155.149 554.991 155.855 555.825 155.912Z" fill="black"/>
</g>
<path d="M543.034 146.838C544.911 145.544 544.181 143.109 544.181 143.109V143.171C542.46 130.075 551.718 122.798 559.435 122.109C563.849 121.713 575.251 123.47 577.446 136.595C577.765 138.487 577.713 140.504 580.853 142.374C580.853 142.374 578.118 148.872 577.301 151.25C576.948 152.273 574.978 148.075 574.086 147.606C573.976 147.55 573.153 148.702 572.62 149.448C572.29 149.906 571.531 149.855 571.346 149.324L571.276 149.12C570.656 147.25 570.367 145.295 570.431 143.329C565.043 141.471 565.651 135.996 565.651 135.996C559.464 146.634 548.856 142.674 548.856 142.674L548.763 148.725C548.763 148.725 547.651 147.691 546.573 145.951L544.632 147.318L543.034 146.838Z" fill="black"/>
<path d="M572.221 155.771C572.221 155.771 577.811 156.601 579.404 151.257C580.998 145.912 574.173 144.432 572.788 149.822L571.589 155.726L572.221 155.771Z" fill="#906363"/>
<path opacity="0.3" d="M577.887 148.251C577.319 147.805 576.751 147.618 576.212 147.692C575.674 147.765 575.193 148.087 574.776 148.652C574.358 149.223 574.057 149.94 573.976 150.72L573.906 151.307C573.843 151.737 574.607 151.923 574.654 151.42C574.741 150.788 574.741 150.788 574.741 150.788C574.741 150.607 574.955 149.618 575.366 149.07C575.668 148.675 575.981 148.443 576.311 148.398C576.647 148.353 577.018 148.494 577.429 148.81C577.585 148.934 577.817 148.906 577.945 148.754C578.066 148.601 578.043 148.375 577.887 148.251Z" fill="black"/>
<path d="M545.252 149.754C545.067 152.506 547.216 154.89 550.038 155.071C552.859 155.252 555.304 153.156 555.489 150.404C555.553 149.455 555.333 148.551 554.91 147.76C555.993 147.415 556.972 147.619 557.448 147.766C557.227 148.268 557.083 148.816 557.048 149.393C556.862 152.144 559.012 154.528 561.833 154.709C564.655 154.89 567.099 152.794 567.285 150.042C567.47 147.291 565.321 144.907 562.499 144.726C560.501 144.602 558.699 145.613 557.743 147.195C557.204 147.009 555.964 146.698 554.568 147.206C553.705 146.008 552.32 145.189 550.71 145.088C547.883 144.912 545.438 147.003 545.252 149.754ZM557.691 149.438C557.853 147.037 559.985 145.212 562.447 145.364C564.909 145.523 566.781 147.602 566.624 150.003C566.462 152.404 564.33 154.229 561.868 154.076C559.406 153.924 557.534 151.839 557.691 149.438ZM545.901 149.794C546.063 147.393 548.195 145.568 550.658 145.72C553.12 145.879 554.991 147.958 554.835 150.359C554.672 152.76 552.54 154.585 550.078 154.432C547.616 154.28 545.745 152.201 545.901 149.794Z" fill="white"/>
<path d="M573.878 155.036C574.497 155.036 575.001 154.544 575.001 153.94C575.001 153.335 574.497 152.844 573.878 152.844C573.258 152.844 572.754 153.335 572.754 153.94C572.754 154.544 573.258 155.036 573.878 155.036Z" fill="white"/>
<path opacity="0.15" d="M573.432 154.839C574.104 154.884 574.677 154.387 574.723 153.732C574.741 153.5 574.683 153.28 574.579 153.088C574.851 153.302 575.019 153.641 574.996 154.009C574.955 154.613 574.422 155.065 573.802 155.031C573.565 155.014 573.35 154.929 573.177 154.794C573.258 154.816 573.345 154.833 573.432 154.839Z" fill="black"/>
<path opacity="0.15" d="M573.327 155.805H571.508L573.582 159.353L573.327 155.805Z" fill="black"/>
<path opacity="0.15" d="M567.986 164.738C566.844 165.399 565.037 166.19 562.58 166.5C561.317 167.444 559.151 168.642 556.399 168.642C556.005 168.642 555.443 168.642 554.933 168.438L555.084 165.02L555.42 165.161C556.909 165.76 558.49 165.884 560.246 165.941C560.726 165.952 561.202 165.952 561.671 165.918C561.856 165.907 562.03 165.896 562.21 165.873C562.256 165.873 562.285 165.873 562.331 165.862C562.615 165.828 562.893 165.788 563.154 165.743C563.264 165.721 563.374 165.698 563.484 165.681C565.326 165.331 566.717 164.698 567.638 164.161C567.789 164.065 568.009 164.11 568.107 164.28C568.206 164.427 568.148 164.641 567.986 164.738Z" fill="black"/>
<path d="M554.887 157.884C554.719 157.884 554.615 158.065 554.696 158.206C555.362 159.41 556.602 160.218 558.009 160.201C559.417 160.184 560.64 159.348 561.272 158.127C561.347 157.98 561.242 157.805 561.074 157.805L554.887 157.884Z" fill="white"/>
<path d="M549.928 144.776C549.939 144.776 549.951 144.782 549.957 144.782C559.614 145.663 564.359 137.595 564.405 137.511C564.515 137.324 564.446 137.087 564.255 136.98C564.064 136.872 563.82 136.94 563.71 137.126C563.664 137.205 559.162 144.833 550.032 144.002C549.812 143.98 549.621 144.138 549.597 144.353C549.58 144.562 549.725 144.742 549.928 144.776Z" fill="black"/>
<path d="M543.091 193.884L546.764 181.127L551.417 171.884L543.213 173.664C540.067 174.347 537.35 176.263 535.699 178.963L509.015 222.631L498.227 188.421L487.411 191.302L496.095 244.422C496.704 248.145 499.27 250.733 502.375 251.817H509.02C510.538 251.269 511.963 250.326 513.139 248.936L531.151 227.58L529.332 251.817H552.587L543.091 193.884Z" fill="#21252B"/>
<path opacity="0.2" d="M532.119 217.421C532.194 216.614 531.122 216.229 530.647 216.896L510.115 245.693C506.662 249.789 501.037 250.043 497.167 247.501C497.167 249.569 508.586 254.326 513.14 248.93L531.151 227.574L532.119 217.421Z" fill="black"/>
<path d="M585.592 172.963L577.145 170.505C573.321 183.675 560.657 190.771 552.425 188.861C543.074 186.692 552.425 171.516 552.425 171.516L550.849 171.929L536.215 197.149C533.457 202.387 533.312 208.573 535.832 213.924L538.428 219.438C539.129 220.918 539.43 222.545 539.308 224.167L537.257 251.817H575.1L585.592 172.963Z" fill="white"/>
<path d="M606.211 188.37C605.232 182.516 600.956 177.697 595.157 175.912L578.97 170.923C578.97 170.923 568.246 200.664 567.876 251.817H592.098L593.743 224.805L599.716 251.817H616.83L606.211 188.37Z" fill="#21252B"/>
<path opacity="0.2" d="M593.749 224.806L594.844 204.207C594.861 203.891 595.336 203.891 595.354 204.201L597.978 243.937L593.749 224.806Z" fill="black"/>
<path opacity="0.2" d="M509.015 222.625L509.304 229.337L516.494 210.388L509.015 222.625Z" fill="black"/>
<path d="M679.265 251.817H425.856C422.287 251.817 419.396 248.998 419.396 245.517V235.472H685.725V245.517C685.725 248.998 682.834 251.817 679.265 251.817Z" fill="#3F4249"/>
<path d="M521.998 248.637C524.819 248.637 527.102 246.411 527.102 243.66C527.102 240.908 524.819 238.682 521.998 238.682C519.176 238.682 516.894 240.908 516.894 243.66C516.894 246.411 519.176 248.637 521.998 248.637Z" fill="black"/>
<path d="M524.367 242.704L523.434 243.331V242.444C523.434 242.331 523.342 242.241 523.226 242.241H519.709C519.593 242.241 519.501 242.331 519.501 242.444V244.885C519.501 244.998 519.593 245.089 519.709 245.089H523.226C523.342 245.089 523.434 244.998 523.434 244.885V243.998L524.367 244.625C524.419 244.659 524.495 244.625 524.495 244.557V242.778C524.495 242.704 524.419 242.665 524.367 242.704Z" fill="white"/>
<path d="M544.163 248.637C546.979 248.637 549.267 246.411 549.267 243.66C549.267 240.908 546.979 238.682 544.163 238.682C541.342 238.682 539.059 240.908 539.059 243.66C539.059 246.411 541.342 248.637 544.163 248.637Z" fill="black"/>
<path d="M542.651 243.619H541.718V245.794H542.651V243.619Z" fill="white"/>
<path d="M543.972 243.144H543.039V245.794H543.972V243.144Z" fill="white"/>
<path d="M545.287 242.365H544.354V245.795H545.287V242.365Z" fill="white"/>
<path d="M546.608 241.523H545.675V245.795H546.608V241.523Z" fill="white"/>
<path d="M588.494 248.608C591.316 248.608 593.598 246.382 593.598 243.631C593.598 240.885 591.316 238.653 588.494 238.653C585.673 238.653 583.39 240.885 583.39 243.631C583.39 246.382 585.673 248.608 588.494 248.608Z" fill="#F9213C"/>
<path d="M589.902 241.67L588.494 243.043L587.087 241.67L586.484 242.258L587.892 243.631L586.484 245.004L587.087 245.591L588.494 244.218L589.902 245.591L590.505 245.004L589.097 243.631L590.505 242.258L589.902 241.67Z" fill="white"/>
<path d="M566.329 248.637C569.15 248.637 571.433 246.411 571.433 243.66C571.433 240.908 569.15 238.682 566.329 238.682C563.513 238.682 561.225 240.908 561.225 243.66C561.225 246.411 563.507 248.637 566.329 248.637Z" fill="black"/>
<path d="M566.833 241.348H565.917C564.794 241.348 563.791 242.145 563.687 243.241C563.559 244.49 564.568 245.54 565.825 245.54H566.833C567.221 245.54 567.586 245.433 567.905 245.258L568.75 245.896C568.843 245.97 568.988 245.902 568.988 245.789V243.45C568.982 242.286 568.02 241.348 566.833 241.348ZM565.187 244.015C564.967 244.015 564.794 243.846 564.794 243.631C564.794 243.422 564.967 243.252 565.187 243.252C565.402 243.252 565.581 243.422 565.581 243.631C565.587 243.846 565.402 244.015 565.187 244.015ZM566.323 244.009C566.114 244.009 565.946 243.846 565.946 243.631C565.946 243.427 566.114 243.264 566.323 243.264C566.537 243.264 566.711 243.427 566.711 243.631C566.711 243.846 566.543 244.009 566.323 244.009ZM567.592 244.009C567.383 244.009 567.204 243.846 567.204 243.631C567.204 243.427 567.377 243.264 567.592 243.264C567.8 243.264 567.98 243.427 567.98 243.631C567.98 243.846 567.8 244.009 567.592 244.009Z" fill="white"/>
<path d="M635.433 128.759C635.433 121.878 640.768 116.211 647.628 115.471V115.386H649.14C656.712 115.386 662.847 121.369 662.847 128.753C662.847 136.138 656.712 142.121 649.14 142.121H647.628V142.036C640.768 141.307 635.433 135.641 635.433 128.759Z" fill="#485BFF"/>
<path d="M647.628 142.126C655.2 142.126 661.335 136.143 661.335 128.759C661.335 121.375 655.2 115.392 647.628 115.392C640.056 115.392 633.92 121.375 633.92 128.759C633.92 136.143 640.056 142.126 647.628 142.126Z" fill="#485BFF"/>
<path opacity="0.9" d="M647.628 142.126C655.2 142.126 661.335 136.143 661.335 128.759C661.335 121.375 655.2 115.392 647.628 115.392C640.056 115.392 633.92 121.375 633.92 128.759C633.92 136.143 640.056 142.126 647.628 142.126Z" fill="white"/>
<path d="M647.628 140.652C654.365 140.652 659.823 135.324 659.823 128.759C659.823 122.188 654.365 116.866 647.628 116.866C640.89 116.866 635.433 122.188 635.433 128.759C635.433 135.324 640.89 140.652 647.628 140.652Z" fill="white"/>
<path d="M647.628 140.652C654.365 140.652 659.823 135.324 659.823 128.759C659.823 122.188 654.365 116.866 647.628 116.866C640.89 116.866 635.433 122.188 635.433 128.759C635.433 135.324 640.89 140.652 647.628 140.652Z" fill="#485BFF"/>
<path opacity="0.6" d="M647.628 140.652C654.365 140.652 659.823 135.324 659.823 128.759C659.823 122.188 654.365 116.866 647.628 116.866C640.89 116.866 635.433 122.188 635.433 128.759C635.433 135.324 640.89 140.652 647.628 140.652Z" fill="white"/>
<path d="M647.628 116.866C647.848 116.866 648.062 116.872 648.282 116.883C641.852 117.216 636.742 122.403 636.742 128.759C636.742 135.115 641.852 140.302 648.282 140.635C648.068 140.646 647.848 140.652 647.628 140.652C640.896 140.652 635.433 135.33 635.433 128.759C635.433 122.188 640.896 116.866 647.628 116.866Z" fill="#485BFF"/>
<path d="M647.512 129.68L651.556 121.832C651.712 121.527 651.585 121.16 651.272 121.007C650.959 120.855 650.582 120.979 650.426 121.284L646.944 128.041L642.309 125.827C641.996 125.68 641.62 125.804 641.463 126.109C641.307 126.414 641.44 126.782 641.753 126.934L647.512 129.68Z" fill="#485BFF"/>
<path opacity="0.3" d="M637.182 134.895C636.07 133.104 635.433 131.002 635.433 128.759C635.433 122.194 640.89 116.866 647.628 116.866C647.964 116.866 648.3 116.883 648.63 116.911L637.182 134.895Z" fill="white"/>
<path opacity="0.3" d="M650.461 117.194C651.052 117.33 651.625 117.51 652.181 117.731L639.563 137.68C639.071 137.256 638.613 136.793 638.196 136.296L650.461 117.194Z" fill="white"/>
<path d="M425.856 84.99H679.265C682.834 84.99 685.725 87.8092 685.725 91.2895V101.335H419.396V91.2895C419.396 87.8092 422.287 84.99 425.856 84.99Z" fill="#3F4249"/>
<path d="M657.025 97.7467C659.62 97.7467 661.723 95.6958 661.723 93.1647C661.723 90.6336 659.62 88.5827 657.025 88.5827C654.429 88.5827 652.326 90.6336 652.326 93.1647C652.326 95.6958 654.429 97.7467 657.025 97.7467Z" fill="black"/>
<path d="M659.006 92.7529H655.049V93.5777H659.006V92.7529Z" fill="white"/>
<path d="M672.059 97.7467C674.654 97.7467 676.757 95.6958 676.757 93.1647C676.757 90.6336 674.654 88.5827 672.059 88.5827C669.463 88.5827 667.36 90.6336 667.36 93.1647C667.36 95.6958 669.463 97.7467 672.059 97.7467Z" fill="black"/>
<path d="M671.995 92.7698L670.824 91.6285H671.827V91.1596H670.002V92.9336H670.483V91.9562L671.653 93.0975L671.995 92.7698Z" fill="white"/>
<path d="M672.122 93.5608L673.293 94.702H672.296V95.171H674.115V93.3912H673.634V94.3687L672.464 93.2274L672.122 93.5608Z" fill="white"/>
<path d="M472.458 95.5162H429.593C428.538 95.5162 427.681 94.68 427.681 93.6517C427.681 92.6235 428.538 91.7873 429.593 91.7873H472.458C473.513 91.7873 474.37 92.6235 474.37 93.6517C474.37 94.6856 473.513 95.5162 472.458 95.5162Z" fill="white"/>
<path d="M424.697 317.666H377.834C377.452 317.666 377.122 317.988 377.122 318.361V319.519C377.122 319.892 377.452 320.214 377.834 320.214H424.697C425.08 320.214 425.41 319.892 425.41 319.519V318.361C425.41 317.994 425.126 317.666 424.697 317.666Z" fill="#3F4249"/>
<path d="M393.094 317.666H311.39C311.008 317.666 310.677 317.988 310.677 318.361V319.519C310.677 319.892 311.008 320.214 311.39 320.214H393.094C393.477 320.214 393.807 319.892 393.807 319.519V318.361C393.755 317.994 393.471 317.666 393.094 317.666Z" fill="#21252B"/>
<g opacity="0.6">
<path opacity="0.6" d="M423.655 318.135H340.479C340.334 318.135 340.241 318.044 340.241 317.903C340.241 317.762 340.334 317.672 340.479 317.672H423.655C423.799 317.672 423.892 317.762 423.892 317.903C423.892 318.039 423.747 318.135 423.655 318.135Z" fill="black"/>
</g>
<path d="M413.284 317.666H425.595C426.545 317.666 427.357 317.016 427.542 316.09L437.854 263.202C438.092 261.998 437.142 260.931 435.908 260.931H423.597C422.646 260.931 421.835 261.58 421.65 262.507L411.332 315.395C411.147 316.604 412.05 317.666 413.284 317.666Z" fill="#3F4249"/>
<path d="M344.563 317.666H423.602C424.553 317.666 425.364 317.016 425.549 316.09L435.861 263.202C436.099 261.998 435.149 260.931 433.915 260.931H354.927C353.977 260.931 353.166 261.58 352.981 262.507L342.669 315.395C342.425 316.604 343.329 317.666 344.563 317.666Z" fill="#21252B"/>
<path d="M344.563 317.666H423.602C424.553 317.666 425.364 317.016 425.549 316.09L435.861 263.202C436.099 261.998 435.149 260.931 433.915 260.931H354.927C353.977 260.931 353.166 261.58 352.981 262.507L342.669 315.395C342.425 316.604 343.329 317.666 344.563 317.666Z" fill="black"/>
<path d="M344.54 315.812L422.119 315.807H422.716L433.857 263.195L354.835 262.964L344.54 315.812Z" fill="#485BFF"/>
<path opacity="0.7" d="M354.835 262.969L344.546 315.812L422.716 315.807L433.857 263.195L354.835 262.969Z" fill="white"/>
<path opacity="0.7" d="M419.576 279.117C422.351 279.117 424.599 276.925 424.599 274.218C424.599 271.512 422.351 269.32 419.576 269.32C416.801 269.32 414.553 271.512 414.553 274.218C414.553 276.925 416.801 279.117 419.576 279.117Z" fill="white"/>
<path d="M353.039 272.174H382.823L378.217 298.683H347.877" fill="#485BFF"/>
<path opacity="0.6" d="M353.039 272.174H382.823L378.217 298.683H347.877" fill="white"/>
<path d="M368.866 295.242L364.643 296.355L363.878 293.976L360.831 294.53C359.979 294.682 359.145 294.394 358.676 293.784L356.804 291.333C356.654 291.135 356.689 290.863 356.886 290.671C357.094 290.468 357.424 290.428 357.656 290.575L360.327 292.276L364.452 291.321C366.155 290.925 367.806 291.745 368.246 293.208L368.866 295.242Z" fill="#906363"/>
<path d="M402.903 286.072C401.964 285.422 401.419 284.411 401.454 283.303C401.46 283.066 401.454 282.823 401.437 282.574C401.193 279.603 398.401 276.987 395.122 276.648C390.464 276.167 386.142 279.439 385.685 283.597C385.563 284.704 385.731 285.761 386.131 286.704C386.409 287.36 386.252 288.117 385.806 288.755C385.314 289.456 385.024 290.275 385.03 291.151C385.036 293.072 386.554 294.654 388.639 294.925C390.974 295.224 393.193 293.914 394.021 292.021C394.734 293.959 396.819 295.286 399.38 295.072C401.935 294.857 404.177 293.055 404.716 290.784C405.179 288.851 404.386 287.094 402.903 286.072Z" fill="#21252B"/>
<path d="M364.475 296.192L368.889 295.028L371.948 308.011L383.217 293.841C384.103 292.728 385.372 291.903 386.803 291.508L393.639 289.626L402.787 291.615C405.058 292.107 406.703 293.756 407.01 295.853L409.536 312.842H379.399L379.787 309.779L376.624 312.842H366.039L364.475 296.192Z" fill="#3F4249"/>
<path d="M398.094 290.552L394.021 312.84H384.375L390.296 290.818L398.094 290.552Z" fill="white"/>
<path d="M399.224 284.434C399.531 281.62 397.155 279.326 393.975 279.456C391.229 279.569 388.801 281.558 388.384 284.021C388.066 285.92 388.969 287.615 390.539 288.536L390.29 290.812C390.076 292.75 391.646 294.344 393.795 294.377C396.107 294.411 398.106 292.626 398.088 290.547L398.059 287.078C398.697 286.326 399.119 285.417 399.224 284.434Z" fill="#906363"/>
<path d="M395.238 280.168C394.983 282.513 392.666 284.383 390.07 284.349C387.475 284.315 387.058 284.185 387.318 281.84C387.573 279.496 388.9 277.863 391.495 277.897C394.091 277.936 395.493 277.824 395.238 280.168Z" fill="#21252B"/>
<path d="M433.069 266.851L433.857 263.201L354.835 262.969L354.053 266.851H433.069Z" fill="#61656D"/>
<path d="M345.501 311.073L344.54 315.813H422.716L423.724 311.073H345.501Z" fill="#61656D"/>
<path d="M376.971 314.377C377.649 313.886 377.881 313.072 377.487 312.558C377.093 312.044 376.23 312.027 375.552 312.524C374.874 313.016 374.642 313.829 375.036 314.343C375.424 314.852 376.293 314.869 376.971 314.377Z" fill="black"/>
<path d="M382.938 314.383C383.616 313.891 383.848 313.072 383.454 312.564C383.06 312.055 382.197 312.032 381.519 312.53C380.841 313.021 380.61 313.835 381.003 314.349C381.397 314.857 382.261 314.874 382.938 314.383Z" fill="black"/>
<path d="M394.913 314.4C395.591 313.909 395.823 313.095 395.429 312.581C395.035 312.067 394.172 312.05 393.494 312.547C392.816 313.039 392.584 313.852 392.978 314.366C393.367 314.875 394.236 314.892 394.913 314.4Z" fill="#F9213C"/>
<path d="M388.929 314.39C389.607 313.898 389.838 313.085 389.444 312.57C389.051 312.056 388.187 312.039 387.509 312.536C386.832 313.028 386.6 313.842 386.994 314.356C387.388 314.87 388.251 314.887 388.929 314.39Z" fill="black"/>
<path d="M427.762 265.597C428.185 265.287 428.33 264.778 428.081 264.456C427.832 264.134 427.293 264.123 426.87 264.428C426.447 264.739 426.302 265.247 426.551 265.569C426.8 265.891 427.345 265.908 427.762 265.597Z" fill="black"/>
<path d="M430.977 265.603C431.4 265.298 431.545 264.784 431.296 264.462C431.047 264.14 430.508 264.128 430.085 264.433C429.662 264.739 429.517 265.253 429.767 265.575C430.016 265.902 430.554 265.914 430.977 265.603Z" fill="black"/>
<path opacity="0.7" d="M365.014 295.981C365.367 295.671 365.437 295.185 365.17 294.902C364.904 294.62 364.405 294.642 364.052 294.953C363.699 295.264 363.629 295.75 363.89 296.032C364.156 296.32 364.66 296.298 365.014 295.981Z" fill="white"/>
<path d="M364.544 295.853L364.695 295.728L364.486 295.474L364.794 295.22L364.695 295.095L364.232 295.474L364.544 295.853Z" fill="#485BFF"/>
<path d="M273.791 323.53C273.791 325.4 275.343 326.915 277.261 326.915H568.484C570.401 326.915 571.954 325.4 571.954 323.53C571.954 321.66 570.401 320.146 568.484 320.146H277.261C275.343 320.146 273.791 321.66 273.791 323.53Z" fill="#DADDDF"/>
<path d="M238.063 323.53C238.063 325.4 239.615 326.915 241.533 326.915H507.039C508.957 326.915 510.509 325.4 510.509 323.53C510.509 321.66 508.957 320.146 507.039 320.146H241.533C239.615 320.146 238.063 321.66 238.063 323.53Z" fill="#B2B6BB"/>
<path d="M320.729 328.824H256.515V494.465H320.729V328.824Z" fill="#DADDDF"/>
<path d="M256.515 326.847H249.864V494.465H256.515V326.847Z" fill="#B2B6BB"/>
<path d="M249.864 342.152H490.98V326.841H249.864V342.152Z" fill="#B2B6BB"/>
<path d="M295.342 343.462C294.78 339.485 292.376 336.349 289.201 334.88L289.925 333.965H284.897L284.891 333.971C284.514 333.976 284.138 334.004 283.755 334.055L230.972 341.281C225.08 342.089 220.306 346.604 218.811 352.79L184.561 494.465H192.405L226.151 354.847C226.864 351.909 229.129 349.762 231.927 349.383L284.711 342.157C286.235 341.954 287.608 343.067 287.84 344.7L309.09 494.471H316.187L295.342 343.462Z" fill="#B2B6BB"/>
<path d="M197.248 494.465H189.404L223.654 352.791C225.149 346.604 229.923 342.09 235.815 341.282L288.599 334.056C294.236 333.282 299.328 337.418 300.185 343.463L321.609 494.465H313.922L292.683 344.695C292.451 343.062 291.078 341.949 289.554 342.152L236.771 349.378C233.973 349.763 231.707 351.909 230.995 354.842L197.248 494.465Z" fill="#DADDDF"/>
<path d="M274.874 391.977H202.879C200.29 391.977 198.193 389.932 198.193 387.406C198.193 384.881 200.29 382.836 202.879 382.836H274.868C277.458 382.836 279.555 384.881 279.555 387.406C279.561 389.932 277.458 391.977 274.874 391.977Z" fill="#868A91"/>
<path d="M463.519 320.112H476.05C477.991 320.112 479.549 318.598 479.549 316.7V296.615H459.973V316.705C460.02 318.592 461.578 320.112 463.519 320.112Z" fill="#3F4249"/>
<path d="M456.961 313.242H460.02V311.773H456.961C456.185 311.773 455.553 311.157 455.553 310.4V302.202C455.553 301.445 456.185 300.829 456.961 300.829H460.02V299.36H456.961C455.356 299.36 454.093 300.637 454.093 302.157V310.354C454.047 311.965 455.356 313.242 456.961 313.242Z" fill="#3F4249"/>
<path d="M458.658 300.829V299.361H460.02V296.564H464.295V316.321C464.295 318.027 465.703 319.4 467.453 319.4H478.286C477.701 319.875 476.925 320.157 476.096 320.157H463.565C461.625 320.157 460.066 318.643 460.066 316.745V313.287H458.705V311.818H460.066V300.875H458.658V300.829Z" fill="#21252B"/>
<path d="M472.893 295.146C473.038 295.146 473.136 295.05 473.136 294.909C473.136 293.112 474.642 291.593 476.537 291.593H478.188C479.648 291.593 480.812 290.457 480.812 289.033C480.812 287.61 479.648 286.474 478.188 286.474H468.861C467.696 286.474 466.723 285.525 466.723 284.389C466.723 283.254 467.696 282.304 468.861 282.304H471.097C472.603 282.304 473.768 281.118 473.768 279.7C473.768 279.559 473.669 279.462 473.524 279.462C473.379 279.462 473.281 279.559 473.281 279.7C473.281 280.886 472.308 281.835 471.091 281.835H468.855C467.395 281.835 466.23 282.971 466.23 284.395C466.23 285.818 467.395 286.954 468.855 286.954H478.182C479.347 286.954 480.32 287.903 480.32 289.039C480.32 290.175 479.347 291.124 478.182 291.124H476.531C474.393 291.124 472.644 292.83 472.644 294.915C472.655 295.05 472.748 295.146 472.893 295.146Z" fill="white"/>
<path d="M467.499 296.615C467.644 296.615 467.742 296.519 467.742 296.378V295.807C467.742 295.384 468.084 295.05 468.519 295.05C469.249 295.05 469.782 294.48 469.782 293.819V292.824C469.782 292.112 469.197 291.593 468.519 291.593H466.966C464.875 291.593 463.131 289.932 463.131 287.852V286.005C463.131 285.864 463.032 285.768 462.887 285.768C462.743 285.768 462.644 285.864 462.644 286.005V287.802C462.644 290.124 464.585 292.016 466.966 292.016H468.519C468.953 292.016 469.295 292.35 469.295 292.773V293.768C469.295 294.192 468.953 294.525 468.519 294.525C467.789 294.525 467.256 295.096 467.256 295.757V296.327C467.256 296.468 467.354 296.615 467.499 296.615Z" fill="white"/>
<path d="M330.554 461.228L363.166 478.471L354.794 462.731C353.409 460.104 353.311 456.991 354.585 454.307L359.406 444.002L340.05 438.505L330.554 461.228Z" fill="#FA9B9B"/>
<path opacity="0.15" d="M340.38 451.289L340.484 451.092C340.977 449.9 342.315 449.312 343.514 449.724L355.321 452.832L356.509 449.928L339.059 440.77L330.809 460.487L346.017 466.12L342.246 461.928C339.627 458.984 338.897 454.866 340.38 451.289Z" fill="black"/>
<path d="M331.255 454.385L324.686 466.939C323.62 468.979 324.442 471.448 326.528 472.488L370.291 494.279C371.16 494.708 372.232 494.369 372.673 493.527C374.231 490.55 373.646 486.883 371.242 484.493L363.038 476.403L355.483 460.69C354.73 459.063 352.871 458.204 351.052 458.611L343.086 460.459C341.904 460.747 340.681 460.385 339.824 459.583L333.92 453.956C333.028 453.204 331.748 453.441 331.255 454.385Z" fill="#3F4249"/>
<path d="M326.528 472.487L370.291 494.279C371.16 494.708 372.232 494.369 372.673 493.527C372.956 492.979 373.165 492.46 373.269 491.889L324.419 467.567C323.823 469.448 324.645 471.55 326.528 472.487Z" fill="black"/>
<path d="M352.598 465.572C352.494 465.521 352.419 465.42 352.396 465.346C352.32 465.12 352.448 464.872 352.68 464.798L356.781 463.34C357.013 463.267 357.268 463.391 357.343 463.617C357.419 463.843 357.291 464.092 357.059 464.165L352.958 465.623C352.83 465.623 352.703 465.623 352.598 465.572Z" fill="white"/>
<path d="M353.856 468.199C353.751 468.148 353.676 468.047 353.653 467.973C353.577 467.747 353.705 467.499 353.937 467.425L358.038 465.968C358.27 465.894 358.525 466.018 358.6 466.244C358.676 466.47 358.548 466.719 358.316 466.793L354.215 468.25C354.081 468.256 353.96 468.25 353.856 468.199Z" fill="white"/>
<path d="M355.107 470.826C355.003 470.776 354.927 470.674 354.904 470.6C354.829 470.374 354.956 470.126 355.188 470.052L359.29 468.595C359.522 468.521 359.776 468.646 359.852 468.872C359.927 469.098 359.8 469.346 359.568 469.42L355.466 470.877C355.391 470.906 355.263 470.905 355.107 470.826Z" fill="white"/>
<path d="M287.915 349.502H386.768C397.283 349.502 404.061 360.372 399.23 369.48L356.509 449.922L338.283 442.26L357.847 382.514H301.819L287.915 349.502Z" fill="#3F4249"/>
<path opacity="0.2" d="M287.915 349.502H379.955C384.277 349.502 387.202 353.79 385.54 357.677L384.294 360.525L384.769 361.197C387.069 364.44 388.077 369.519 388.836 373.689L390.835 384.638C390.876 384.87 390.719 385.096 390.476 385.135C390.447 385.141 390.424 385.141 390.4 385.141C390.192 385.141 390.006 384.994 389.966 384.785L387.967 373.836C387.214 369.694 386.2 364.66 383.889 361.468C383.889 361.468 383.889 361.468 383.883 361.468L347.037 445.938L338.283 442.26L357.847 382.514H301.819L287.915 349.502Z" fill="black"/>
<path d="M334.262 309.367L340.565 314.593C341.394 315.277 341.139 316.582 340.114 316.926L338.051 317.621C337.263 317.887 336.394 317.83 335.647 317.469L325.404 312.452L335.178 309.361" fill="#FC9D9D"/>
<path opacity="0.15" d="M334.262 309.366L340.565 314.592C341.394 315.276 341.139 316.581 340.114 316.926L338.051 317.621C337.263 317.886 336.394 317.83 335.647 317.468L325.404 312.451" fill="black"/>
<path d="M319.906 308.699L330.161 306.496C331.557 306.196 333.011 306.411 334.251 307.1L342.784 311.852C343.369 312.179 343.561 312.908 343.207 313.468C342.906 313.942 342.303 314.146 341.77 313.948C339.488 313.112 333.747 311.016 333.747 311.016L326.395 313.032C326.128 313.106 325.92 313.309 325.844 313.569C325.723 314.004 326.007 314.451 326.459 314.535L330.746 315.326C332.142 315.586 333.098 316.857 332.924 318.23C332.883 318.547 332.617 318.795 332.287 318.812L312.635 319.778L306.709 307.852L319.906 308.699Z" fill="#FC9D9D"/>
<path d="M255.194 273.456L229.535 314.27C225.844 320.141 230.178 327.683 237.234 327.683H263.878L255.194 273.456Z" fill="#485BFF"/>
<path d="M297.839 225.518L303.777 237.416C304.073 238.009 304.675 238.405 305.347 238.45L307.01 238.563C308.111 238.636 309.038 239.405 309.293 240.45L309.304 240.495C309.577 241.603 309.061 242.744 308.047 243.298C307.253 243.733 306.489 244.151 306.489 244.151L307.109 251.45C307.427 255.179 304.704 258.495 300.904 259.01L297.121 259.524L289.497 276.58L271.699 260.586L275.117 249.241L275.262 228.393L297.839 225.518Z" fill="#FC9D9D"/>
<path d="M266.103 230.287C266.995 225.637 269.278 223.456 273.565 222.501C274.254 222.349 274.706 221.682 274.88 221.015C275.291 219.388 276.676 216.405 281.276 215.303C284.868 214.445 287.353 215.795 288.784 217.043C289.618 217.767 290.875 217.721 291.727 217.021C292.99 215.976 295.07 214.964 297.978 215.772C303.592 217.326 304.038 225.846 299.212 228.015L295.296 229.575C294.554 229.869 294.16 230.631 294.317 231.394C294.456 232.095 294.473 232.829 294.334 233.569C293.882 236.038 291.883 237.869 289.456 238.321C288.888 238.422 288.564 239.016 288.732 239.552L290.145 243.954C290.29 244.411 290.18 244.942 289.804 245.259C289.23 245.739 288.402 245.615 287.996 245.044L286.119 242.417C285.47 241.513 284.335 241.061 283.222 241.27L282 241.496C281.357 243.513 280.87 245.694 280.331 247.434C279.874 248.897 279.341 250.004 278.773 250.767C277.469 252.53 275.952 252.507 274.584 251.055C274.584 251.055 265.894 241.575 265.894 232.643C265.888 231.846 265.958 231.061 266.103 230.287Z" fill="#21252B"/>
<path opacity="0.15" d="M278.767 250.766L282.22 250.145C282.348 250.173 282.487 250.195 282.631 250.224C283.97 250.455 286.125 250.636 287.579 249.755C287.793 249.625 287.857 249.348 287.718 249.139C287.585 248.93 287.307 248.868 287.092 249.003C286.855 249.145 286.594 249.252 286.316 249.331L280.32 247.433C279.868 248.896 279.341 250.003 278.767 250.766Z" fill="black"/>
<path d="M303.407 234.162L284.039 241.581L284.422 242.53L303.789 235.112L303.407 234.162Z" fill="#485BFF"/>
<path d="M283.709 240.501C283.709 240.501 281.351 237.97 278.773 240.62C275.824 243.648 279.984 251.377 286.316 249.331C289.636 248.258 288.205 246.727 286.623 244.529C283.709 240.501 283.709 240.501 283.709 240.501Z" fill="#FC9D9D"/>
<path opacity="0.3" d="M279.486 242.778C279.932 242.112 280.465 241.722 281.067 241.614C281.664 241.507 282.295 241.688 282.938 242.146C283.587 242.609 284.12 243.281 284.485 244.083L284.844 244.761C284.937 244.965 284.839 245.196 284.636 245.287C284.433 245.377 284.19 245.281 284.097 245.083L283.738 244.405C283.668 244.213 283.095 243.23 282.458 242.79C281.994 242.468 281.583 242.332 281.212 242.4C280.841 242.468 280.494 242.739 280.169 243.219C280.047 243.405 279.793 243.456 279.601 243.332C279.416 243.213 279.364 242.965 279.486 242.778Z" fill="black"/>
<path d="M305.62 239.715C305.423 239.715 305.232 239.608 305.145 239.422L301.072 230.936C300.95 230.681 301.06 230.376 301.327 230.258C301.587 230.139 301.9 230.246 302.022 230.506L306.095 238.992C306.216 239.247 306.106 239.552 305.84 239.67C305.77 239.699 305.695 239.715 305.62 239.715Z" fill="#485BFF"/>
<path opacity="0.3" d="M303.905 247.733C305.498 248.01 306.726 247.626 306.801 247.598L306.668 246.581C306.651 246.586 304.733 247.168 303.036 246.411C302.798 246.304 302.514 246.389 302.375 246.609C302.213 246.869 302.317 247.219 302.607 247.343C303.047 247.535 303.482 247.66 303.905 247.733Z" fill="black"/>
<path d="M387.208 482.442L424.958 483.352L409.895 472.86C407.398 471.103 405.822 468.86 404.675 465.522L402.375 454.363L378.947 454.42L387.208 482.442Z" fill="#FA9B9B"/>
<path opacity="0.15" d="M391.397 469.002V468.77C391.281 467.465 392.214 466.335 393.488 466.16L404.484 464.46L403.974 462.132H381.218L387.081 481.646L403.539 479.889L398.129 477.787C394.369 476.318 391.75 472.911 391.397 469.002Z" fill="black"/>
<path d="M384.595 475.923V490.273C384.595 492.601 386.513 494.471 388.9 494.471H438.92C439.911 494.471 440.722 493.674 440.722 492.714C440.722 489.307 438.451 486.25 435.137 485.166L423.857 481.533L409.548 470.696C408.093 469.567 405.996 469.623 404.542 470.809L398.198 476.086C397.266 476.883 395.985 477.103 394.827 476.764L386.803 474.329C385.644 474.052 384.595 474.843 384.595 475.923Z" fill="#3F4249"/>
<path d="M388.9 494.471H438.92C439.911 494.471 440.722 493.674 440.722 492.714C440.722 492.092 440.664 491.522 440.484 490.957H384.647C385.007 492.934 386.745 494.471 388.9 494.471Z" fill="black"/>
<path d="M409.258 476.431C409.142 476.431 409.02 476.375 408.962 476.318C408.789 476.149 408.789 475.866 408.962 475.697L411.992 472.521C412.166 472.352 412.456 472.352 412.63 472.521C412.804 472.691 412.804 472.973 412.63 473.143L409.606 476.318C409.49 476.375 409.374 476.431 409.258 476.431Z" fill="white"/>
<path d="M411.645 478.245C411.529 478.245 411.407 478.188 411.349 478.132C411.176 477.962 411.176 477.68 411.349 477.51L414.374 474.335C414.547 474.166 414.837 474.166 415.011 474.335C415.185 474.504 415.185 474.787 415.011 474.956L411.987 478.132C411.871 478.194 411.761 478.245 411.645 478.245Z" fill="white"/>
<path d="M414.026 480.064C413.91 480.064 413.788 480.007 413.73 479.951C413.557 479.781 413.557 479.499 413.73 479.329L416.755 476.154C416.928 475.985 417.218 475.985 417.392 476.154C417.566 476.324 417.566 476.606 417.392 476.776L414.362 479.951C414.321 480.007 414.2 480.064 414.026 480.064Z" fill="white"/>
<path d="M256.787 369.706L258.705 371.678C265.46 378.616 274.805 382.599 284.613 382.723L356.138 383.633L381.687 463.973H404.675L386.704 368.119C385.331 360.785 379.196 355.186 371.601 354.333L306.245 346.988L256.787 369.706Z" fill="#3F4249"/>
<path d="M256.787 369.706L259.22 374.955L309.918 351.26L306.251 346.988L256.787 369.706Z" fill="black"/>
<path opacity="0.2" d="M273.327 362.107C279.347 370.463 292.26 373.559 302.115 373.667L359.041 375.328C362.94 375.441 366.306 378.034 367.331 381.706L390.006 463.973H381.693L356.144 383.633L287.405 382.757C275.813 382.61 264.77 377.904 256.787 369.701L273.327 362.107Z" fill="black"/>
<path d="M354.035 292.303L355.061 280.348C355.101 279.891 355.437 279.507 355.895 279.399C357.181 279.088 358.409 280.083 358.34 281.371L358.079 286.156L354.035 292.303Z" fill="#FC9D9D"/>
<path opacity="0.15" d="M354.035 292.303L355.061 280.348C355.101 279.891 355.437 279.507 355.895 279.399C357.181 279.088 358.409 280.083 358.34 281.371L358.079 286.156L354.035 292.303Z" fill="black"/>
<path d="M362.546 280.84L368.026 270.801C368.432 270.055 369.382 269.778 370.141 270.174C370.859 270.546 371.16 271.394 370.842 272.123L365.941 283.259L371.543 274.287C371.925 273.671 372.742 273.456 373.391 273.801C374.063 274.157 374.312 274.97 373.959 275.626L368.577 285.569L373.443 279.643C373.686 279.332 374.237 279.095 374.718 279.405C375.175 279.693 375.106 280.264 374.92 280.62L370.262 289.53L369.579 293.954C368.936 298.134 366.694 301.925 363.305 304.558L363.119 304.705L354.771 316.592L346.944 304.383L351.451 300.287L357.291 281.4L363.461 269.343C363.791 268.693 364.585 268.411 365.269 268.693C365.941 268.97 366.277 269.705 366.051 270.377L362.546 280.84Z" fill="#FC9D9D"/>
<path d="M253.827 364.418L256.787 369.706L306.06 347.858L292.671 316.321L313.505 293.812L312.514 290.914C310.892 286.168 307.572 282.151 303.163 279.598L298.065 276.643L296.588 271.128L272.644 256.512L269.411 262.264C264.62 263.665 260.512 266.428 257.517 270.055C254.522 273.693 252.627 278.191 252.251 283.055L248.01 338.118C247.309 347.248 249.331 356.378 253.827 364.418Z" fill="#485BFF"/>
<path opacity="0.15" d="M306.054 347.864L291.739 314.14C291.414 313.378 290.244 313.762 290.453 314.558L299.82 350.627L306.054 347.864Z" fill="black"/>
<g opacity="0.15">
<path opacity="0.15" d="M298.065 277.157C298.25 277.157 298.424 277.061 298.523 276.897C298.662 276.648 298.575 276.338 298.32 276.202L277.319 264.699C277.064 264.563 276.745 264.648 276.606 264.897C276.467 265.145 276.554 265.456 276.809 265.592L297.81 277.095C297.891 277.134 297.978 277.157 298.065 277.157Z" fill="black"/>
</g>
<path opacity="0.15" d="M250.82 293.852L243.665 327.689H248.821L251.422 293.937C251.451 293.564 250.901 293.49 250.82 293.852Z" fill="black"/>
<path d="M354.985 391.977H253.89C251.301 391.977 249.203 389.932 249.203 387.406C249.203 384.881 251.301 382.836 253.89 382.836H354.985C357.575 382.836 359.672 384.881 359.672 387.406C359.672 389.932 357.569 391.977 354.985 391.977Z" fill="#B2B6BB"/>
<path d="M246.811 274.303C246.15 271.687 243.741 269.845 240.977 269.845H192.393C188.506 269.845 185.644 273.388 186.548 277.071L211.344 382.836H274.289L246.811 274.303Z" fill="#B2B6BB"/>
<path d="M238.26 274.303C237.599 271.687 235.189 269.845 232.426 269.845H183.842C179.955 269.845 177.093 273.388 177.997 277.071L204.026 382.836H265.738L238.26 274.303Z" fill="#868A91"/>
<path opacity="0.2" d="M208.001 381.735L269.231 381.752L268.942 382.836H208.273L208.001 381.735Z" fill="black"/>
<path d="M341.11 343.462C340.548 339.485 338.144 336.349 334.969 334.88L335.693 333.965H330.665L330.659 333.971C330.282 333.976 329.906 334.004 329.523 334.055L276.739 341.281C270.848 342.089 266.074 346.604 264.579 352.79L230.328 494.465H238.173L271.919 354.847C272.632 351.909 274.897 349.762 277.695 349.383L330.479 342.157C332.003 341.954 333.376 343.067 333.608 344.7L354.858 494.471H361.955L341.11 343.462Z" fill="#B2B6BB"/>
<path d="M243.016 494.465H235.172L269.422 352.791C270.917 346.604 275.691 342.09 281.583 341.282L334.367 334.056C340.004 333.282 345.096 337.418 345.953 343.463L367.377 494.465H359.689L338.445 344.695C338.213 343.062 336.84 341.949 335.317 342.152L282.533 349.378C279.735 349.763 277.469 351.909 276.757 354.842L243.016 494.465Z" fill="#DADDDF"/>
<path opacity="0.15" d="M297.127 259.529L294.317 259.811C293.598 259.885 293.378 260.806 293.987 261.179L295.869 262.337L297.127 259.529Z" fill="black"/>
<path d="M438.613 446.674H431.962V494.471H438.613V446.674Z" fill="#DADDDF"/>
<path d="M562.32 326.903H506.008V494.471H562.32V326.903Z" fill="#DADDDF"/>
<path d="M506.008 326.847H499.357V494.471H506.008V326.847Z" fill="#B2B6BB"/>
<path d="M433.399 446.674H426.748V494.471H433.399V446.674Z" fill="#B2B6BB"/>
<path d="M426.824 474.906H499.351V326.841H426.824V474.906Z" fill="#B2B6BB"/>
<path opacity="0.15" d="M437.796 348.542V463.888H489.566V348.542H437.796ZM457.986 349.344C458.942 351.491 461.126 352.994 463.681 352.994C466.23 352.994 468.42 351.491 469.376 349.344H488.749V386.729H438.619V349.344H457.986ZM463.681 391.175C466.23 391.175 468.42 389.673 469.376 387.526H488.749V424.91H438.619V387.526H457.992C458.942 389.673 461.132 391.175 463.681 391.175ZM438.619 463.086V425.707H457.992C458.948 427.854 461.132 429.357 463.687 429.357C466.236 429.357 468.426 427.854 469.382 425.707H488.755V463.086H438.619Z" fill="black"/>
<g opacity="0.4">
<path opacity="0.15" d="M499.763 327.705H506.054V326.903H347.413V327.705H498.946H499.763Z" fill="black"/>
</g>
<path d="M292.671 316.322L306.06 347.859C308.476 351.876 312.728 353.961 316.998 353.961C320.578 353.961 324.17 352.497 326.731 349.497L360.848 309.463L350.756 300.92L323.544 323.192L313.499 293.824L292.671 316.322Z" fill="#485BFF"/>
<path opacity="0.15" d="M323.544 323.181L324.889 326.898C325.253 327.904 326.69 327.966 327.142 326.994L332.345 315.762L323.544 323.181Z" fill="black"/>
<path opacity="0.2" d="M562.32 326.903H506.008V327.711H562.32V326.903Z" fill="black"/>
<path opacity="0.15" d="M257.523 270.061L257.5 285.976C257.482 297.88 258.554 309.762 260.709 321.474L265.888 349.661L249.064 283.208L257.523 270.061Z" fill="black"/>
<path d="M581.334 428.249L603.551 451.77L603.418 408.52H603.969L604.038 429.504L622.826 410.854L623.226 411.232L604.038 430.278V430.306L604.16 469.459H603.609L603.557 452.572L603.54 452.555L580.928 428.617L581.334 428.249Z" fill="#868A91"/>
<path d="M620.642 451.702L621.024 452.092L611.245 461.058V461.081L609.704 469.504L609.159 469.408L615.341 435.6L615.886 435.696L611.413 460.171L620.642 451.702Z" fill="#868A91"/>
<path d="M599.641 493.821H613.452C616.042 493.821 618.139 491.776 618.139 489.25V471.442H594.96V489.25C594.954 491.776 597.051 493.821 599.641 493.821Z" fill="#868A91"/>
<path d="M603.696 408.582C611.674 408.582 618.139 402.277 618.139 394.498C618.139 386.718 611.674 380.413 603.696 380.413C595.719 380.413 589.253 386.718 589.253 394.498C589.253 402.277 595.719 408.582 603.696 408.582Z" fill="#485BFF"/>
<path d="M616.639 437.081C622.345 437.081 626.968 432.572 626.968 427.007C626.968 421.442 622.345 416.933 616.639 416.933C610.932 416.933 606.309 421.442 606.309 427.007C606.309 432.572 610.932 437.081 616.639 437.081Z" fill="#485BFF"/>
<g opacity="0.3">
<path opacity="0.3" d="M616.639 437.081C622.345 437.081 626.968 432.572 626.968 427.007C626.968 421.442 622.345 416.933 616.639 416.933C610.932 416.933 606.309 421.442 606.309 427.007C606.309 432.572 610.932 437.081 616.639 437.081Z" fill="white"/>
</g>
<g opacity="0.3">
<path opacity="0.3" d="M603.696 408.582C611.674 408.582 618.139 402.277 618.139 394.498C618.139 386.718 611.674 380.413 603.696 380.413C595.719 380.413 589.253 386.718 589.253 394.498C589.253 402.277 595.719 408.582 603.696 408.582Z" fill="white"/>
</g>
<path d="M625.827 414.284C629.234 414.284 631.997 411.589 631.997 408.267C631.997 404.945 629.234 402.25 625.827 402.25C622.421 402.25 619.657 404.945 619.657 408.267C619.657 411.589 622.421 414.284 625.827 414.284Z" fill="#485BFF"/>
<path d="M625.989 454.391C630.039 454.391 633.324 451.187 633.324 447.238C633.324 443.289 630.039 440.085 625.989 440.085C621.94 440.085 618.655 443.289 618.655 447.238C618.655 451.187 621.94 454.391 625.989 454.391Z" fill="#485BFF"/>
<path d="M586.837 443.685C591.999 443.685 596.182 439.606 596.182 434.572C596.182 429.538 591.999 425.459 586.837 425.459C581.676 425.459 577.493 429.538 577.493 434.572C577.493 439.606 581.676 443.685 586.837 443.685Z" fill="#485BFF"/>
<path d="M618.638 469.058H594.456C593.778 469.058 593.233 469.589 593.233 470.25C593.233 470.911 593.778 471.442 594.456 471.442H618.638C619.315 471.442 619.86 470.911 619.86 470.25C619.86 469.595 619.315 469.058 618.638 469.058Z" fill="#868A91"/>
<path d="M618.139 394.498C618.139 386.718 611.674 380.413 603.696 380.413V408.582C611.668 408.582 618.139 402.272 618.139 394.498Z" fill="#485BFF"/>
<path d="M615.121 436.961C620.677 437.769 625.891 434.086 626.824 428.662C627.739 423.312 624.147 418.238 618.748 417.142L615.121 436.961Z" fill="#485BFF"/>
<path opacity="0.3" d="M630.161 412.549C632.588 410.215 632.611 406.407 630.218 404.04C630.195 404.017 630.166 403.995 630.143 403.972L621.499 412.549C623.904 414.854 627.756 414.859 630.161 412.549Z" fill="black"/>
<path opacity="0.3" d="M620.769 452.261C623.614 455.074 628.255 455.102 631.14 452.328C633.99 449.583 634.048 445.125 631.29 442.306L620.619 452.097C620.671 452.148 620.717 452.204 620.769 452.261Z" fill="black"/>
<path d="M618.116 471.442H597.028C596.35 471.442 595.806 470.911 595.806 470.25C595.806 469.589 596.35 469.058 597.028 469.058H594.456C593.778 469.058 593.233 469.589 593.233 470.25C593.233 470.911 593.778 471.442 594.456 471.442H594.954V471.81V489.256C594.954 491.782 597.051 493.827 599.641 493.827H606.987C607.085 493.827 607.132 493.827 607.132 493.827C603.858 493.827 601.043 491.567 600.417 488.431L597.098 471.815H618.11L618.116 471.442Z" fill="#61656D"/>
<path opacity="0.3" d="M580.511 427.866C580.552 427.832 580.592 427.804 580.633 427.77L593.222 441.228C593.204 441.245 593.193 441.262 593.175 441.273C589.381 444.68 583.466 444.442 579.972 440.742C576.467 437.041 576.711 431.273 580.511 427.866Z" fill="black" fill-opacity="0.89"/>
<path d="M272.319 162.952H334.616V85.0408H272.319V162.952Z" fill="white"/>
<path d="M280.627 155.166H326.308V92.8144H280.627V155.166Z" fill="#DDDDDD"/>
<path d="M272.406 85.0352H270.593V162.946H272.406V85.0352Z" fill="#DADDDF"/>
<path d="M292.764 144.008H314.165V117.053H292.764V144.008Z" fill="#B1B5BA"/>
<path d="M303.482 112.951C309.31 112.951 314.032 108.347 314.032 102.663H292.932C292.932 108.347 297.654 112.951 303.482 112.951Z" fill="#485BFF"/>
<path d="M323.55 179.032H285.592C284.671 179.032 283.929 179.76 283.929 180.653V202.021C283.929 202.919 284.676 203.642 285.592 203.642H313.84L321.25 209.083L322.212 210.987H324.101C324.159 210.992 324.216 210.992 324.274 210.987H324.28C324.773 210.942 325.213 210.552 325.213 209.998V180.653C325.213 179.76 324.466 179.032 323.55 179.032Z" fill="#485BFF"/>
<path opacity="0.4" d="M323.55 179.032H285.592C284.671 179.032 283.929 179.76 283.929 180.653V202.021C283.929 202.919 284.676 203.642 285.592 203.642H313.84L321.25 209.083L322.171 210.987H324.101C324.159 210.992 324.216 210.992 324.274 210.987H324.28C324.773 210.942 325.213 210.552 325.213 209.998V180.653C325.213 179.76 324.466 179.032 323.55 179.032Z" fill="white"/>
<path d="M321.58 179.032H283.622C282.701 179.032 281.959 179.76 281.959 180.653V202.021C281.959 202.919 282.707 203.642 283.622 203.642H311.871L321.609 210.789C322.281 211.281 323.243 210.817 323.243 209.992V180.647C323.243 179.76 322.496 179.032 321.58 179.032Z" fill="#485BFF"/>
<path d="M291.107 193.664C293.031 193.664 294.589 192.144 294.589 190.268C294.589 188.393 293.031 186.873 291.107 186.873C289.184 186.873 287.625 188.393 287.625 190.268C287.625 192.144 289.184 193.664 291.107 193.664Z" fill="white"/>
<path d="M288.842 190.268C288.842 188.596 290.082 187.206 291.715 186.924C291.518 186.89 291.316 186.867 291.107 186.867C289.184 186.867 287.625 188.387 287.625 190.263C287.625 192.139 289.184 193.658 291.107 193.658C291.316 193.658 291.518 193.636 291.715 193.602C290.082 193.331 288.842 191.941 288.842 190.268Z" fill="#485BFF"/>
<path opacity="0.4" d="M288.842 190.268C288.842 188.596 290.082 187.206 291.715 186.924C291.518 186.89 291.316 186.867 291.107 186.867C289.184 186.867 287.625 188.387 287.625 190.263C287.625 192.139 289.184 193.658 291.107 193.658C291.316 193.658 291.518 193.636 291.715 193.602C290.082 193.331 288.842 191.941 288.842 190.268Z" fill="white"/>
<path d="M302.178 193.664C304.102 193.664 305.66 192.144 305.66 190.268C305.66 188.393 304.102 186.873 302.178 186.873C300.255 186.873 298.696 188.393 298.696 190.268C298.696 192.144 300.255 193.664 302.178 193.664Z" fill="white"/>
<path d="M299.907 190.268C299.907 188.596 301.147 187.206 302.781 186.924C302.584 186.89 302.381 186.867 302.173 186.867C300.249 186.867 298.691 188.387 298.691 190.263C298.691 192.139 300.249 193.658 302.173 193.658C302.381 193.658 302.584 193.636 302.781 193.602C301.153 193.331 299.907 191.941 299.907 190.268Z" fill="#485BFF"/>
<path opacity="0.4" d="M299.907 190.268C299.907 188.596 301.147 187.206 302.781 186.924C302.584 186.89 302.381 186.867 302.173 186.867C300.249 186.867 298.691 188.387 298.691 190.263C298.691 192.139 300.249 193.658 302.173 193.658C302.381 193.658 302.584 193.636 302.781 193.602C301.153 193.331 299.907 191.941 299.907 190.268Z" fill="white"/>
<path d="M313.244 193.664C315.167 193.664 316.726 192.144 316.726 190.268C316.726 188.393 315.167 186.873 313.244 186.873C311.32 186.873 309.762 188.393 309.762 190.268C309.762 192.144 311.32 193.664 313.244 193.664Z" fill="white"/>
<path d="M310.979 190.268C310.979 188.596 312.218 187.206 313.852 186.924C313.655 186.89 313.452 186.867 313.244 186.867C311.32 186.867 309.762 188.387 309.762 190.263C309.762 192.139 311.32 193.658 313.244 193.658C313.452 193.658 313.655 193.636 313.852 193.602C312.218 193.331 310.979 191.941 310.979 190.268Z" fill="#485BFF"/>
<path opacity="0.4" d="M310.979 190.268C310.979 188.596 312.218 187.206 313.852 186.924C313.655 186.89 313.452 186.867 313.244 186.867C311.32 186.867 309.762 188.387 309.762 190.263C309.762 192.139 311.32 193.658 313.244 193.658C313.452 193.658 313.655 193.636 313.852 193.602C312.218 193.331 310.979 191.941 310.979 190.268Z" fill="white"/>
<path d="M754.534 495.527L136.336 494.832C136.093 494.832 135.89 494.64 135.89 494.397C135.89 494.16 136.087 493.962 136.336 493.962L754.534 494.657C754.777 494.657 754.98 494.849 754.98 495.092C754.98 495.335 754.777 495.527 754.534 495.527Z" fill="#DADDDF"/>
<defs>
<linearGradient id="paint0_linear_65_1001" x1="282.903" y1="30.0866" x2="739.636" y2="507.614" gradientUnits="userSpaceOnUse">
<stop stop-color="#04D361"/>
<stop offset="1" stop-color="#485BFF"/>
</linearGradient>
</defs>
</svg>
