<svg width="141" height="27" viewBox="0 0 141 27" fill="none" xmlns="http://www.w3.org/2000/svg">
<path d="M23.272 26L23.2 12.644L16.72 23.516H13.552L7.108 13.004V26H0.52V0.799998H6.388L15.244 15.344L23.884 0.799998H29.752L29.824 26H23.272ZM51.7517 21.104H41.0957L39.1157 26H31.8437L42.9677 0.799998H49.9877L61.1477 26H53.7317L51.7517 21.104ZM49.6637 15.848L46.4237 7.784L43.1837 15.848H49.6637ZM74.1844 19.304H70.2964V26H63.1684V0.799998H74.6884C76.9684 0.799998 78.9484 1.184 80.6284 1.952C82.3084 2.696 83.6044 3.776 84.5164 5.192C85.4284 6.584 85.8844 8.228 85.8844 10.124C85.8844 11.948 85.4524 13.544 84.5884 14.912C83.7484 16.256 82.5364 17.312 80.9524 18.08L86.3884 26H78.7564L74.1844 19.304ZM78.6844 10.124C78.6844 8.948 78.3124 8.036 77.5684 7.388C76.8244 6.74 75.7204 6.416 74.2564 6.416H70.2964V13.796H74.2564C75.7204 13.796 76.8244 13.484 77.5684 12.86C78.3124 12.212 78.6844 11.3 78.6844 10.124ZM110.049 20.492V26H89.8169V0.799998H109.581V6.308H96.8729V10.556H108.069V15.884H96.8729V20.492H110.049ZM126.677 26.504C124.013 26.504 121.613 25.94 119.477 24.812C117.365 23.684 115.697 22.124 114.473 20.132C113.273 18.14 112.673 15.896 112.673 13.4C112.673 10.904 113.273 8.66 114.473 6.668C115.697 4.676 117.365 3.116 119.477 1.988C121.613 0.859998 124.013 0.295998 126.677 0.295998C129.341 0.295998 131.729 0.859998 133.841 1.988C135.977 3.116 137.645 4.676 138.845 6.668C140.069 8.66 140.681 10.904 140.681 13.4C140.681 15.896 140.069 18.14 138.845 20.132C137.645 22.124 135.977 23.684 133.841 24.812C131.729 25.94 129.341 26.504 126.677 26.504ZM126.677 20.6C127.949 20.6 129.101 20.3 130.133 19.7C131.165 19.1 131.981 18.26 132.581 17.18C133.181 16.076 133.481 14.816 133.481 13.4C133.481 11.984 133.181 10.736 132.581 9.656C131.981 8.552 131.165 7.7 130.133 7.1C129.101 6.5 127.949 6.2 126.677 6.2C125.405 6.2 124.253 6.5 123.221 7.1C122.189 7.7 121.373 8.552 120.773 9.656C120.173 10.736 119.873 11.984 119.873 13.4C119.873 14.816 120.173 16.076 120.773 17.18C121.373 18.26 122.189 19.1 123.221 19.7C124.253 20.3 125.405 20.6 126.677 20.6Z" fill="url(#paint0_linear_25_1015)"/>
<defs>
<linearGradient id="paint0_linear_25_1015" x1="124" y1="35" x2="39.217" y2="-15.3129" gradientUnits="userSpaceOnUse">
<stop stop-color="#04D361"/>
<stop offset="1" stop-color="#485BFF"/>
</linearGradient>
</defs>
</svg>
